# Blender v2.79 (sub 0) OBJ File: 'asteroid.blend'
# www.blender.org
mtllib asteroid.mtl
o Icosphere
v 0.440159 -9.115346 -0.562040
v 8.126599 -3.551004 7.516395
v -1.410134 -4.438317 9.812937
v -10.419713 -4.150012 -2.003679
v -4.176745 -4.896866 -10.186604
v 5.863953 -2.239982 -4.809324
v 1.746741 3.423187 7.798891
v -7.494968 5.256204 4.807355
v -6.917367 6.864212 -5.243302
v 1.746478 4.796925 -6.807570
v 10.078516 5.003426 2.309385
v 0.218649 7.955232 -1.304617
v -1.591883 -7.959851 4.699795
v 4.725553 -7.915069 3.127795
v 2.288040 -5.137918 6.745896
v 9.059330 -6.480713 1.041824
v 4.613021 -9.264556 -1.807650
v -4.154233 -7.460032 0.155379
v -8.242339 -4.153510 4.280367
v -2.693414 -7.472407 -3.986970
v -5.904212 -4.175427 -6.299232
v 0.973426 -6.757825 -9.377649
v 9.350394 1.546973 2.458898
v 10.474207 -0.221087 -3.285461
v 1.924789 1.116186 12.102999
v 5.911095 1.054657 8.102604
v -9.424605 0.861461 2.812389
v -7.566051 2.053731 8.790868
v -6.191795 1.475046 -8.424209
v -8.367219 0.387979 -2.860697
v 6.012915 0.736135 -8.420061
v -0.945635 0.444869 -8.980847
v 7.923415 3.975428 4.239468
v -1.029949 6.791970 6.260370
v -8.597980 5.196398 0.111686
v -1.646765 5.457059 -6.879694
v 4.422236 5.055214 -4.138126
v 0.237799 8.557099 4.904803
v 3.265062 6.560892 -0.478191
v -4.211085 9.288101 2.801921
v -1.606546 8.279043 -4.409806
v 0.333195 5.026575 -3.191559
v -2.278828 6.525114 -9.427705
v 2.868454 5.021829 -9.371662
v 5.206151 8.469402 0.690564
v 0.274036 10.462929 -0.247823
v 7.173789 5.677156 -5.061705
v -2.716722 10.964151 -5.201843
vt 0.589478 0.517845
vt 0.695629 0.522739
vt 0.616757 0.637050
vt 0.706973 0.560949
vt 0.818740 0.665783
vt 0.717508 0.712689
vt 0.511842 0.595069
vt 0.480378 0.503884
vt 0.640391 0.438642
vt 0.229713 0.927349
vt 0.232256 0.787881
vt 0.337231 0.927349
vt 0.900956 0.467838
vt 0.835929 0.553531
vt 0.774502 0.382877
vt 1.000000 0.269600
vt 0.855939 0.299412
vt 0.868291 0.185696
vt 0.119011 0.787881
vt 0.191592 0.818657
vt 0.112487 0.926320
vt 0.168877 0.149609
vt 0.246708 0.000000
vt 0.246455 0.154297
vt 0.324171 0.408470
vt 0.324171 0.568964
vt 0.267821 0.460646
vt 0.940916 0.361385
vt 0.804347 0.907240
vt 0.854097 0.764724
vt 0.906994 0.866176
vt 0.267821 0.408470
vt 0.195852 0.527456
vt 0.137112 0.461325
vt 0.267821 0.648656
vt 0.316945 0.568964
vt 0.316945 0.715744
vt 0.608126 0.136651
vt 0.691484 0.261425
vt 0.515690 0.227047
vt 0.390891 0.097009
vt 0.516322 0.170982
vt 0.406442 0.214826
vt 0.128193 0.648169
vt 0.202144 0.734057
vt 0.000000 0.659038
vt 0.755459 0.886039
vt 0.750968 0.961146
vt 0.695629 0.903289
vt 0.099216 0.379258
vt 0.242837 0.287608
vt 0.229661 0.408470
vt 0.383949 0.955535
vt 0.352778 0.870435
vt 0.425148 0.898797
vt 0.057061 0.810856
vt 0.060416 0.899638
vt 0.000000 0.847082
vt 0.729834 0.818869
vt 0.425087 0.819786
vt 0.352668 0.779065
vt 0.051343 0.533913
vt 0.352668 0.361385
vt 0.457152 0.322006
vt 0.082415 0.787881
vt 0.901238 0.078320
vt 0.795647 0.099774
vt 0.804145 0.000000
vt 0.574874 0.338416
vt 0.708341 0.325349
vt 0.105586 0.214639
vt 0.352668 0.210255
vt 0.004517 0.473618
vt 0.987048 0.166021
vt 1.000000 0.013775
vt 0.448167 0.000000
vt 0.666337 0.050123
vt 0.708341 0.147897
vt 0.620927 0.725016
vt 0.534303 0.829888
vt 0.541142 0.760121
vt 0.483304 0.789400
vt 0.351048 0.127393
vt 0.352668 0.011239
vt 0.267821 0.627673
vt 0.229713 0.926320
vt 0.906994 0.999768
vt 0.726391 0.188655
vt 0.708341 0.326861
vt 0.695629 0.478236
vt 0.516552 0.955080
vt 0.620927 0.960457
vt 0.000000 0.159312
vt 0.069143 0.063704
vt 0.461045 0.361385
vt 0.352668 0.420321
vt 0.370387 0.511410
vt 0.355399 0.647500
vt 0.472882 0.725016
vt 0.656580 0.725016
vt 0.832066 0.764724
vt 0.940916 0.596459
vt 0.804347 0.872234
vt 0.804347 0.987268
vt 0.483304 0.915387
vt 0.420019 1.000000
vt 0.766540 0.764724
vt 0.483304 0.788292
vt 0.112487 0.787881
vt 0.112487 0.933358
vt 0.364887 0.725016
vn 0.0662 -0.9689 0.2383
vn 0.4609 -0.7817 0.4201
vn -0.3267 -0.9417 0.0806
vn -0.3532 -0.9276 -0.1218
vn -0.1315 -0.9353 -0.3284
vn 0.9830 -0.0659 0.1714
vn 0.4630 -0.5609 0.6863
vn -0.9374 -0.1259 0.3247
vn -0.9103 -0.1855 -0.3701
vn 0.7927 -0.4861 -0.3679
vn 0.7970 0.3180 0.5134
vn -0.3398 -0.1768 0.9237
vn -0.9064 0.3722 -0.2000
vn -0.0534 0.2505 -0.9666
vn 0.4809 -0.6862 -0.5458
vn 0.3848 0.5365 0.7510
vn -0.3091 0.6133 0.7269
vn -0.6985 0.7156 0.0037
vn 0.1907 0.9816 0.0122
vn 0.6079 0.7759 -0.1687
vn 0.4325 0.5002 -0.7502
vn -0.1002 0.9086 -0.4055
vn -0.0238 0.9971 -0.0726
vn 0.8298 0.3249 -0.4538
vn 0.8423 0.3482 -0.4115
vn -0.5348 0.5544 -0.6377
vn -0.1335 0.9747 0.1792
vn -0.6894 0.7240 0.0229
vn -0.7243 0.6703 0.1616
vn -0.0098 0.9379 0.3468
vn -0.2150 0.6873 0.6938
vn 0.1688 0.5212 0.8366
vn 0.2982 0.8945 0.3330
vn 0.4663 0.7045 0.5351
vn 0.2697 0.6919 0.6697
vn 0.8671 0.3931 -0.3058
vn 0.7547 0.2382 -0.6113
vn 0.6456 0.3197 -0.6935
vn -0.0113 -0.0757 -0.9971
vn -0.1243 -0.0998 -0.9872
vn -0.6170 0.3367 -0.7113
vn -0.9574 0.1172 -0.2640
vn -0.9796 0.0694 -0.1884
vn -0.9265 0.3098 0.2137
vn -0.3098 0.7437 0.5924
vn -0.1908 0.6541 0.7319
vn 0.6430 0.6857 0.3410
vn 0.3282 0.6633 0.6725
vn 0.8442 0.1117 0.5242
vn 0.6926 -0.1151 0.7121
vn 0.0858 -0.1555 -0.9841
vn 0.0770 0.0753 -0.9942
vn 0.1911 0.1047 -0.9760
vn -0.9335 0.0805 -0.3493
vn -0.9006 -0.1924 -0.3897
vn -0.6785 0.1720 -0.7142
vn -0.9254 0.3032 0.2272
vn -0.9395 -0.1285 0.3177
vn -0.5766 -0.4382 0.6895
vn 0.4272 0.8041 0.4133
vn 0.6123 -0.4935 0.6177
vn -0.0846 -0.1658 0.9825
vn 0.9509 -0.1897 0.2444
vn 0.9743 -0.0729 0.2131
vn 0.4721 -0.5710 -0.6716
vn 0.7918 -0.3537 -0.4978
vn -0.1637 -0.9573 -0.2383
vn -0.2795 -0.9085 -0.3106
vn -0.6526 -0.7423 -0.1522
vn -0.6194 -0.7548 -0.2162
vn -0.3396 -0.8723 -0.3518
vn -0.5064 -0.8444 0.1750
vn -0.4968 -0.8475 0.1869
vn -0.4494 -0.7282 0.5175
vn 0.6577 -0.3920 -0.6433
vn 0.4047 -0.8844 0.2326
vn 0.0439 -0.9639 0.2626
vn 0.2939 -0.7920 0.5351
vn 0.1719 -0.7221 0.6701
vn 0.1171 -0.7481 0.6531
vn 0.2335 0.9371 0.2594
vn 0.3268 0.3033 -0.8951
vn -0.1742 0.9837 0.0454
vn 0.8503 0.1976 -0.4879
vn -0.3947 0.7792 -0.4869
vn 0.9448 0.2486 -0.2135
usemtl asteroid
s off
f 1/1/1 14/2/1 13/3/1
f 2/4/2 14/5/2 16/6/2
f 1/1/3 13/3/3 18/7/3
f 1/1/4 18/7/4 20/8/4
f 1/1/5 20/8/5 17/9/5
f 2/10/6 16/11/6 23/12/6
f 3/13/7 15/14/7 25/15/7
f 4/16/8 19/17/8 27/18/8
f 5/19/9 21/20/9 29/21/9
f 6/22/10 22/23/10 31/24/10
f 2/25/11 23/26/11 26/27/11
f 3/13/12 25/15/12 28/28/12
f 4/29/13 27/30/13 30/31/13
f 5/32/14 29/33/14 32/34/14
f 6/35/15 31/36/15 24/37/15
f 7/38/16 33/39/16 38/40/16
f 8/41/17 34/42/17 40/43/17
f 9/44/18 35/45/18 48/46/18
f 10/47/19 36/48/19 42/49/19
f 11/50/20 47/51/20 45/52/20
f 39/53/21 42/54/21 12/55/21
f 39/56/22 37/57/22 42/58/22
f 37/59/23 10/47/23 42/49/23
f 42/54/24 41/60/24 12/55/24
f 42/54/25 36/61/25 41/60/25
f 43/62/26 9/44/26 48/46/26
f 48/63/27 40/43/27 46/64/27
f 48/46/28 35/45/28 40/65/28
f 35/66/29 8/67/29 40/68/29
f 40/43/30 38/40/30 46/64/30
f 40/43/31 34/42/31 38/40/31
f 34/42/32 7/38/32 38/40/32
f 38/40/33 45/69/33 46/64/33
f 38/40/34 33/39/34 45/69/34
f 33/39/35 11/70/35 45/69/35
f 24/71/36 47/51/36 11/50/36
f 24/71/37 31/24/37 47/51/37
f 31/24/38 44/72/38 47/51/38
f 32/34/39 43/62/39 44/73/39
f 32/34/40 29/33/40 43/62/40
f 29/33/41 9/44/41 43/62/41
f 30/74/42 35/66/42 9/75/42
f 30/74/43 27/18/43 35/66/43
f 27/18/44 8/67/44 35/66/44
f 28/76/45 34/42/45 8/41/45
f 28/76/46 25/77/46 34/42/46
f 25/77/47 7/38/47 34/42/47
f 26/78/48 33/39/48 7/38/48
f 26/79/49 23/80/49 33/81/49
f 23/80/50 11/82/50 33/81/50
f 31/24/51 32/83/51 44/72/51
f 31/24/52 22/23/52 32/83/52
f 22/23/53 5/84/53 32/83/53
f 29/33/54 30/85/54 9/44/54
f 29/21/55 21/20/55 30/86/55
f 21/87/56 4/29/56 30/31/56
f 27/18/57 28/88/57 8/67/57
f 27/18/58 19/17/58 28/88/58
f 19/17/59 3/89/59 28/88/59
f 25/77/60 26/78/60 7/38/60
f 25/15/61 15/14/61 26/90/61
f 15/14/62 2/4/62 26/90/62
f 23/80/63 24/91/63 11/82/63
f 23/80/64 16/92/64 24/91/64
f 16/93/65 6/22/65 24/71/65
f 17/94/66 22/23/66 6/22/66
f 17/9/67 20/8/67 22/95/67
f 20/8/68 5/96/68 22/95/68
f 20/8/69 21/97/69 5/96/69
f 20/8/70 18/7/70 21/97/70
f 18/7/71 4/98/71 21/97/71
f 18/7/72 19/99/72 4/98/72
f 18/7/73 13/3/73 19/99/73
f 13/3/74 3/100/74 19/99/74
f 16/93/75 17/94/75 6/22/75
f 16/6/76 14/5/76 17/101/76
f 14/2/77 1/1/77 17/9/77
f 13/102/78 15/14/78 3/13/78
f 13/102/79 14/5/79 15/14/79
f 14/5/80 2/4/80 15/14/80
f 36/48/81 10/47/81 44/103/81 43/104/81
f 39/53/82 12/55/82 46/105/82 45/106/82
f 10/47/83 37/59/83 47/107/83 44/103/83
f 12/55/84 41/60/84 48/108/84 46/105/84
f 37/57/85 39/56/85 45/109/85 47/110/85
f 41/60/86 36/61/86 43/111/86 48/108/86
