# Blender v2.79 (sub 0) OBJ File: 'asteroid.blend'
# www.blender.org
mtllib asteroid.mtl
o Icosphere
v 0.440159 -9.115346 -0.562040
v 8.126599 -3.551004 7.516395
v -1.410134 -4.438317 9.812937
v -10.419713 -4.150012 -2.003679
v -4.176745 -4.896866 -10.186604
v 5.863953 -2.239982 -4.809324
v 1.746741 3.423187 7.798891
v -7.494968 5.256204 4.807355
v -6.917367 6.864212 -5.243302
v 1.746478 4.796925 -6.807570
v 10.078516 5.003426 2.309385
v 0.218649 7.955232 -1.304617
v -1.591883 -7.959851 4.699795
v 4.725553 -7.915069 3.127795
v 2.288040 -5.137918 6.745896
v 9.059330 -6.480713 1.041824
v 4.613021 -9.264556 -1.807650
v -4.154233 -7.460032 0.155379
v -8.242339 -4.153510 4.280367
v -2.693414 -7.472407 -3.986970
v -5.904212 -4.175427 -6.299232
v 0.973426 -6.757825 -9.377649
v 9.350394 1.546973 2.458898
v 10.474207 -0.221087 -3.285461
v 1.924789 1.116186 12.102999
v 5.911095 1.054657 8.102604
v -9.424605 0.861461 2.812389
v -7.566051 2.053731 8.790868
v -6.191795 1.475046 -8.424209
v -8.367219 0.387979 -2.860697
v 6.012915 0.736135 -8.420061
v -0.945635 0.444869 -8.980847
v 7.923415 3.975428 4.239468
v -1.029949 6.791970 6.260370
v -8.597980 5.196398 0.111686
v -1.646765 5.457059 -6.879694
v 4.422236 5.055214 -4.138126
v 0.237799 8.557099 4.904803
v 3.265062 6.560892 -0.478191
v -4.211085 9.288101 2.801921
v -1.606546 8.279043 -4.409806
v 0.333195 5.026575 -3.191559
v -2.278828 6.525114 -9.427705
v 2.868454 5.021829 -9.371662
v 5.206151 8.469402 0.690564
v 0.274036 10.462929 -0.247823
v 7.173789 5.677156 -5.061705
v -2.716722 10.964151 -5.201843
vt 0.050082 0.524554
vt 0.151199 0.526392
vt 0.085918 0.615950
vt 0.463675 0.143783
vt 0.596619 0.121284
vt 0.570091 0.202875
vt 0.000103 0.596035
vt 0.700705 0.137593
vt 0.789821 0.112038
vt 0.765638 0.180575
vt 0.651830 0.184117
vt 0.462876 0.287804
vt 0.318469 0.000103
vt 0.404569 0.040698
vt 0.267149 0.126203
vt 0.877735 0.178866
vt 0.916012 0.086005
vt 0.982851 0.170014
vt 0.785560 0.259489
vt 0.820838 0.227131
vt 0.849255 0.302729
vt 0.638961 0.296184
vt 0.732751 0.257460
vt 0.667184 0.377115
vt 0.365878 0.188403
vt 0.154193 0.045529
vt 0.109141 0.192233
vt 0.907336 0.237701
vt 0.779337 0.332686
vt 0.563001 0.318039
vt 0.272115 0.220639
vt 0.397884 0.298285
vt 0.226517 0.323882
vt 0.094938 0.269203
vt 0.209659 0.281181
vt 0.146678 0.346148
vt 0.929481 0.343049
vt 0.999897 0.271047
vt 0.956311 0.443102
vt 0.235672 0.524554
vt 0.292132 0.551834
vt 0.233348 0.589748
vt 0.432731 0.350053
vt 0.410949 0.508311
vt 0.318953 0.407298
vt 0.173760 0.628738
vt 0.232927 0.648065
vt 0.173760 0.553487
vt 0.291692 0.620458
vt 0.848370 0.405342
vt 0.121453 0.497513
vt 0.209642 0.424013
vt 0.029760 0.330246
vt 0.562396 0.441751
vt 0.756991 0.425354
vt 0.670250 0.502557
vt 0.009029 0.228294
vt 0.000103 0.120461
vt 0.000103 0.714187
vt 0.151401 0.698919
vt 0.173555 0.615474
vt 0.499641 0.010581
vt 0.844921 0.457541
vt 0.780086 0.471515
vt 0.298477 0.465395
vt 0.230874 0.474443
vt 0.726493 0.524348
vt 0.175650 0.519255
vt 0.355806 0.524348
vt 0.912769 0.481981
vn 0.0662 -0.9689 0.2383
vn 0.4609 -0.7817 0.4201
vn -0.3267 -0.9417 0.0806
vn -0.3532 -0.9276 -0.1218
vn -0.1315 -0.9353 -0.3284
vn 0.9830 -0.0659 0.1714
vn 0.4630 -0.5609 0.6863
vn -0.9374 -0.1259 0.3247
vn -0.9103 -0.1855 -0.3701
vn 0.7927 -0.4861 -0.3679
vn 0.7970 0.3180 0.5134
vn -0.3398 -0.1768 0.9237
vn -0.9064 0.3722 -0.2000
vn -0.0534 0.2505 -0.9666
vn 0.4809 -0.6862 -0.5458
vn 0.3848 0.5365 0.7510
vn -0.3091 0.6133 0.7269
vn -0.6985 0.7156 0.0037
vn 0.1907 0.9816 0.0122
vn 0.6079 0.7759 -0.1687
vn 0.4325 0.5002 -0.7502
vn -0.1002 0.9086 -0.4055
vn -0.0238 0.9971 -0.0726
vn 0.8298 0.3249 -0.4538
vn 0.8423 0.3482 -0.4115
vn -0.5348 0.5544 -0.6377
vn -0.1335 0.9747 0.1792
vn -0.6894 0.7240 0.0229
vn -0.7243 0.6703 0.1616
vn -0.0098 0.9379 0.3468
vn -0.2150 0.6873 0.6938
vn 0.1688 0.5212 0.8366
vn 0.2982 0.8945 0.3330
vn 0.4663 0.7045 0.5351
vn 0.2697 0.6919 0.6697
vn 0.8671 0.3931 -0.3058
vn 0.7547 0.2382 -0.6113
vn 0.6456 0.3197 -0.6935
vn -0.0113 -0.0757 -0.9971
vn -0.1243 -0.0998 -0.9872
vn -0.6170 0.3367 -0.7113
vn -0.9574 0.1172 -0.2640
vn -0.9796 0.0694 -0.1884
vn -0.9265 0.3098 0.2137
vn -0.3098 0.7437 0.5924
vn -0.1908 0.6541 0.7319
vn 0.6430 0.6857 0.3410
vn 0.3282 0.6633 0.6725
vn 0.8442 0.1117 0.5242
vn 0.6926 -0.1151 0.7121
vn 0.0858 -0.1555 -0.9841
vn 0.0770 0.0753 -0.9942
vn 0.1911 0.1047 -0.9760
vn -0.9335 0.0805 -0.3493
vn -0.9006 -0.1924 -0.3897
vn -0.6785 0.1720 -0.7142
vn -0.9254 0.3032 0.2272
vn -0.9395 -0.1285 0.3177
vn -0.5766 -0.4382 0.6895
vn 0.4272 0.8041 0.4133
vn 0.6123 -0.4935 0.6177
vn -0.0846 -0.1658 0.9825
vn 0.9509 -0.1897 0.2444
vn 0.9743 -0.0729 0.2131
vn 0.4721 -0.5710 -0.6716
vn 0.7918 -0.3537 -0.4978
vn -0.1637 -0.9573 -0.2383
vn -0.2795 -0.9085 -0.3106
vn -0.6526 -0.7423 -0.1522
vn -0.6194 -0.7548 -0.2162
vn -0.3396 -0.8723 -0.3518
vn -0.5064 -0.8444 0.1750
vn -0.4968 -0.8475 0.1869
vn -0.4494 -0.7282 0.5175
vn 0.6577 -0.3920 -0.6433
vn 0.4047 -0.8844 0.2326
vn 0.0439 -0.9639 0.2626
vn 0.2939 -0.7920 0.5351
vn 0.1719 -0.7221 0.6701
vn 0.1171 -0.7481 0.6531
vn 0.2335 0.9371 0.2594
vn 0.3268 0.3033 -0.8951
vn -0.1742 0.9837 0.0454
vn 0.8503 0.1976 -0.4879
vn -0.3947 0.7792 -0.4869
vn 0.9448 0.2486 -0.2135
usemtl asteroid.001
s off
f 1/1/1 14/2/1 13/3/1
f 2/4/2 14/5/2 16/6/2
f 1/1/3 13/3/3 18/7/3
f 1/8/4 18/9/4 20/10/4
f 1/8/5 20/10/5 17/11/5
f 2/4/6 16/6/6 23/12/6
f 3/13/7 15/14/7 25/15/7
f 4/16/8 19/17/8 27/18/8
f 5/19/9 21/20/9 29/21/9
f 6/22/10 22/23/10 31/24/10
f 2/4/11 23/12/11 26/25/11
f 3/26/12 25/15/12 28/27/12
f 4/16/13 27/18/13 30/28/13
f 5/19/14 29/21/14 32/29/14
f 6/22/15 31/24/15 24/30/15
f 7/31/16 33/32/16 38/33/16
f 8/34/17 34/35/17 40/36/17
f 9/37/18 35/38/18 48/39/18
f 10/40/19 36/41/19 42/42/19
f 11/43/20 47/44/20 45/45/20
f 39/46/21 42/42/21 12/47/21
f 39/46/22 37/48/22 42/42/22
f 37/48/23 10/40/23 42/42/23
f 42/42/24 41/49/24 12/47/24
f 42/42/25 36/41/25 41/49/25
f 43/50/26 9/37/26 48/39/26
f 48/51/27 40/36/27 46/52/27
f 48/51/28 35/53/28 40/36/28
f 35/53/29 8/34/29 40/36/29
f 40/36/30 38/33/30 46/52/30
f 40/36/31 34/35/31 38/33/31
f 34/35/32 7/31/32 38/33/32
f 38/33/33 45/45/33 46/52/33
f 38/33/34 33/32/34 45/45/34
f 33/32/35 11/43/35 45/45/35
f 24/30/36 47/54/36 11/43/36
f 24/30/37 31/24/37 47/54/37
f 31/24/38 44/55/38 47/56/38
f 32/29/39 43/50/39 44/55/39
f 32/29/40 29/21/40 43/50/40
f 29/21/41 9/37/41 43/50/41
f 30/28/42 35/38/42 9/37/42
f 30/28/43 27/18/43 35/38/43
f 27/57/44 8/34/44 35/53/44
f 28/27/45 34/35/45 8/34/45
f 28/27/46 25/15/46 34/35/46
f 25/15/47 7/31/47 34/35/47
f 26/25/48 33/32/48 7/31/48
f 26/25/49 23/12/49 33/32/49
f 23/12/50 11/43/50 33/32/50
f 31/24/51 32/29/51 44/55/51
f 31/24/52 22/23/52 32/29/52
f 22/23/53 5/19/53 32/29/53
f 29/21/54 30/28/54 9/37/54
f 29/21/55 21/20/55 30/28/55
f 21/20/56 4/16/56 30/28/56
f 27/57/57 28/27/57 8/34/57
f 27/57/58 19/58/58 28/27/58
f 19/58/59 3/26/59 28/27/59
f 25/15/60 26/25/60 7/31/60
f 25/15/61 15/14/61 26/25/61
f 15/14/62 2/4/62 26/25/62
f 23/12/63 24/30/63 11/43/63
f 23/12/64 16/6/64 24/30/64
f 16/6/65 6/22/65 24/30/65
f 17/11/66 22/23/66 6/22/66
f 17/11/67 20/10/67 22/23/67
f 20/10/68 5/19/68 22/23/68
f 20/10/69 21/20/69 5/19/69
f 20/10/70 18/9/70 21/20/70
f 18/9/71 4/16/71 21/20/71
f 18/9/72 19/17/72 4/16/72
f 18/7/73 13/3/73 19/59/73
f 13/3/74 3/60/74 19/59/74
f 16/6/75 17/11/75 6/22/75
f 16/6/76 14/5/76 17/11/76
f 14/5/77 1/8/77 17/11/77
f 13/3/78 15/61/78 3/60/78
f 13/3/79 14/2/79 15/61/79
f 14/62/80 2/4/80 15/14/80
f 36/63/81 10/64/81 44/55/81 43/50/81
f 39/65/82 12/66/82 46/52/82 45/45/82
f 10/64/83 37/67/83 47/56/83 44/55/83
f 12/66/84 41/68/84 48/51/84 46/52/84
f 37/69/85 39/65/85 45/45/85 47/44/85
f 41/70/86 36/63/86 43/50/86 48/39/86
