# Blender v2.79 (sub 0) OBJ File: 'spaceship_flam.blend'
# www.blender.org
mtllib spaceship.mtl
o Cube
v -2.786698 0.338188 -2.195778
v 1.332692 0.338188 -2.195778
v 2.787130 -0.929553 -1.042668
v -2.786697 -0.929553 -1.051171
v -2.786696 -0.929553 -2.195779
v 1.332694 -0.936175 -2.210675
v 2.787129 0.338188 -1.042669
v -2.786698 0.338188 -1.051170
v 4.510468 -1.024637 -0.710565
v 0.509063 0.338188 -2.195778
v 0.509063 0.338188 -1.051170
v 0.509064 -1.044526 -1.051170
v 0.509065 -1.049935 -2.197555
v 4.753420 -0.176331 -0.663747
v 2.752639 1.374098 -0.743742
v 0.544570 0.809789 -1.051170
v 4.918861 0.526888 -0.326292
v 5.668620 -0.933120 -0.247472
v 5.911571 -0.620071 -0.200654
v 1.520872 0.035952 -2.046585
v 2.598951 -0.627317 -1.191861
v 1.520873 -0.627317 -2.046584
v 2.598950 0.035952 -1.191861
v 0.420270 0.035952 -2.046585
v 1.498349 -0.627317 -1.191861
v 0.420271 -0.627317 -2.046584
v 1.498349 0.035952 -1.191861
v -2.786698 0.596325 -2.011410
v -2.786698 0.596325 -1.235538
v 0.014297 0.596325 -2.011410
v 0.014297 0.596325 -1.235538
v -2.786697 -1.207885 -1.235538
v -2.786696 -1.207885 -2.011411
v 0.014298 -1.207885 -1.235538
v 0.014299 -1.207885 -2.011410
v -2.786698 0.338188 -2.195778
v -2.786697 -0.929553 -1.051171
v -2.786696 -0.936175 -2.210677
v -2.786698 0.338188 -1.051170
v -2.786698 0.596325 -2.011410
v -2.786698 0.596325 -1.235538
v -2.786697 -1.207885 -1.235538
v -2.786696 -1.207885 -2.011411
v -3.261270 0.530723 -2.366887
v -3.261268 -1.116051 -0.880061
v -3.261268 -1.116051 -2.366888
v -3.261270 0.530723 -0.880061
v -3.261270 0.866039 -2.127397
v -3.261270 0.866039 -1.119551
v -3.261268 -1.477600 -1.119552
v -3.261268 -1.477600 -2.127398
v -2.786698 0.201554 -2.074349
v -2.786697 -0.797204 -1.172599
v -2.786697 -0.797204 -2.074350
v -2.786698 0.201554 -1.172599
v -2.786698 0.404921 -1.929100
v -2.786698 0.404921 -1.317848
v -2.786697 -1.016482 -1.317849
v -2.786697 -1.016482 -1.929101
v 0.509065 -0.733423 -2.195778
v -1.455309 -1.506093 -5.367743
v -1.881167 -1.573923 -5.359921
v -3.585243 -1.506094 -5.367746
v -1.881167 -1.390384 -5.381090
v -3.292265 -1.067000 -2.953771
v -0.532729 -1.024665 -3.605143
v 0.117530 -1.184577 -3.586698
v -0.532729 -1.278318 -3.575887
v 0.509063 0.338188 -2.195778
v 0.014297 0.596325 -2.011410
v -2.786698 0.338188 -2.195778
v -0.124669 0.425344 -2.133529
v -0.480647 0.509169 -2.073660
v -2.495929 0.425344 -2.133529
v -2.495929 0.467257 -2.103594
v -0.124669 0.425344 -2.133529
v -0.480647 0.509169 -2.073660
v -1.922755 2.073218 -3.785223
v -2.142684 2.157043 -3.725354
v -3.209011 2.115130 -3.755289
v -3.313524 1.218812 -2.949917
v -1.311665 1.333105 -2.899507
v -1.023712 1.249281 -2.959376
v -2.786698 0.596325 -2.011410
v 2.752639 1.374098 -0.743742
v 0.544570 0.809789 -1.051170
v -2.786698 0.338188 2.195778
v 1.332693 0.338188 2.195778
v 2.787130 -0.929553 1.042668
v -2.786697 -0.929553 1.051171
v -2.786696 -0.929553 2.195779
v 1.332694 -0.936175 2.210675
v 2.787129 0.338188 1.042668
v -2.786698 0.338188 1.051170
v -2.786698 0.338188 0.000000
v 4.510468 -1.024637 0.710565
v -2.786697 -0.929553 0.000000
v 2.786698 -0.929553 -0.000000
v 0.509064 0.338188 2.195778
v 0.509063 0.338188 1.051170
v 0.509064 -1.044526 1.051170
v 0.509065 -1.049935 2.197555
v 0.509064 -1.044526 -0.000000
v 4.753420 -0.176331 0.663747
v 2.752639 1.374098 0.743742
v 2.751191 1.374098 -0.000000
v 0.544570 0.809789 1.051170
v 0.544570 0.809789 -0.000000
v 4.560828 -1.024637 -0.000000
v 4.918861 0.526888 0.326291
v 4.981258 0.526888 -0.000000
v 5.668620 -0.933120 0.247471
v 5.911571 -0.620071 0.200653
v 5.753113 -0.933119 -0.000000
v 6.003225 -0.620071 -0.000000
v 1.520872 0.035952 2.046585
v 2.598951 -0.627317 1.191860
v 1.520873 -0.627317 2.046584
v 2.598950 0.035952 1.191861
v 0.420271 0.035952 2.046585
v 1.498349 -0.627317 1.191860
v 0.420272 -0.627317 2.046584
v 1.498349 0.035952 1.191861
v -2.786698 0.596325 2.011411
v -2.786698 0.596325 1.235538
v 0.014298 0.596325 2.011410
v 0.014297 0.596325 1.235538
v -2.786697 -1.207885 1.235539
v -2.786696 -1.207885 2.011411
v 0.014298 -1.207885 1.235538
v 0.014299 -1.207885 2.011410
v -2.786698 0.338188 2.195778
v -2.786697 -0.929553 1.051171
v -2.786696 -0.936175 2.210677
v -2.786698 0.338188 1.051170
v -2.786698 0.596325 2.011411
v -2.786698 0.596325 1.235538
v -2.786697 -1.207885 1.235539
v -2.786696 -1.207885 2.011411
v -3.261270 0.530723 2.366887
v -3.261268 -1.116051 0.880062
v -3.261268 -1.116051 2.366889
v -3.261270 0.530723 0.880061
v -3.261270 0.866039 2.127397
v -3.261270 0.866039 1.119552
v -3.261268 -1.477600 1.119552
v -3.261268 -1.477600 2.127398
v -2.786698 0.201554 2.074350
v -2.786697 -0.797204 1.172600
v -2.786697 -0.797204 2.074351
v -2.786698 0.201554 1.172599
v -2.786698 0.404921 1.929101
v -2.786698 0.404921 1.317849
v -2.786697 -1.016482 1.317849
v -2.786697 -1.016482 1.929101
v 0.509065 -0.733423 2.195778
v -1.455308 -1.506093 5.367743
v -1.881167 -1.573923 5.359921
v -3.585243 -1.506094 5.367746
v -1.881167 -1.390384 5.381090
v -3.292264 -1.067000 2.953771
v -0.532729 -1.024665 3.605143
v 0.117530 -1.184577 3.586698
v -0.532729 -1.278318 3.575887
v 0.509064 0.338188 2.195778
v 0.014298 0.596325 2.011410
v -2.786698 0.338188 2.195778
v -0.124669 0.425344 2.133529
v -0.480647 0.509169 2.073660
v -2.495929 0.425344 2.133529
v -2.495929 0.467257 2.103594
v -0.124669 0.425344 2.133529
v -0.480647 0.509169 2.073660
v -1.922755 2.073218 3.785223
v -2.142683 2.157043 3.725354
v -3.209011 2.115130 3.755289
v -3.313524 1.218812 2.949917
v -1.311665 1.333105 2.899507
v -1.023712 1.249281 2.959376
v -2.786698 0.596325 2.011411
v 2.752639 1.374098 0.743742
v 2.751191 1.374098 -0.000000
v 0.544570 0.809789 1.051170
v 0.544570 0.809789 -0.000000
vt 0.454534 0.413179
vt 0.445473 0.376154
vt 0.720920 0.365202
vt 0.726488 0.648894
vt 0.863459 0.649406
vt 0.863459 0.718226
vt 0.813938 0.718226
vt 0.844746 0.795272
vt 0.844746 0.730840
vt 0.894274 0.718644
vt 0.894267 0.795272
vt 0.813250 0.360936
vt 0.783132 0.312663
vt 0.912763 0.242463
vt 0.938087 0.283053
vt 0.736988 0.183205
vt 0.689203 0.199445
vt 0.658176 0.106394
vt 0.725788 0.149082
vt 0.726488 0.718644
vt 0.789691 0.718644
vt 0.789691 0.794868
vt 0.726489 0.794869
vt 0.647372 0.213338
vt 0.615878 0.120811
vt 0.274973 0.440069
vt 0.275094 0.358962
vt 0.731185 0.328195
vt 0.690827 0.341785
vt 0.783041 0.311912
vt 0.766617 0.310784
vt 0.734295 0.206262
vt 0.725537 0.390841
vt 0.499142 0.431616
vt 0.896268 0.930299
vt 0.819642 0.930857
vt 0.838220 0.915853
vt 0.878096 0.915857
vt 0.896268 0.818694
vt 0.878096 0.833135
vt 0.820037 0.818699
vt 0.838213 0.833137
vt 0.602413 0.818276
vt 0.602734 0.667262
vt 0.638911 0.736942
vt 0.651078 0.752386
vt 0.726070 0.818276
vt 0.651763 0.752213
vt 0.667746 0.648894
vt 0.657770 0.733976
vt 0.595845 0.455976
vt 0.838417 0.553813
vt 0.811316 0.621005
vt 0.568745 0.523168
vt 0.721429 0.365250
vt 0.725979 0.390392
vt 0.726488 0.816361
vt 0.726488 0.795287
vt 0.726856 0.795287
vt 0.726856 0.816361
vt 0.743670 0.320522
vt 0.705724 0.216803
vt 0.766677 0.311091
vt 0.743803 0.320790
vt 0.805273 0.425904
vt 0.765405 0.408372
vt 0.765705 0.407674
vt 0.805573 0.425205
vt 0.731488 0.328366
vt 0.212735 0.780084
vt 0.373972 0.842036
vt 0.301335 0.975047
vt 0.222732 0.913239
vt 0.199762 0.901873
vt 0.216075 0.921712
vt 0.152445 0.789711
vt 0.178030 0.759717
vt 0.182994 0.921619
vt 0.015142 0.890932
vt 0.116473 0.999791
vt 0.162071 0.648894
vt 0.207453 0.673009
vt 0.000209 0.838361
vt 0.129183 0.687193
vt 0.373972 0.786410
vt 0.447693 0.506932
vt 0.494505 0.495167
vt 0.494717 0.495982
vt 0.447905 0.507748
vt 0.586086 0.454466
vt 0.535310 0.528057
vt 0.778636 0.629628
vt 0.539021 0.525676
vt 0.780498 0.624680
vt 0.800236 0.648476
vt 0.782395 0.620124
vt 0.465162 0.648894
vt 0.388278 0.748440
vt 0.587321 0.455298
vt 0.445473 0.376154
vt 0.275094 0.358962
vt 0.262081 0.304772
vt 0.440716 0.288623
vt 0.454534 0.413179
vt 0.720920 0.365202
vt 0.445473 0.376154
vt 0.726488 0.648894
vt 0.813938 0.718226
vt 0.863459 0.718226
vt 0.863459 0.649406
vt 0.844746 0.795272
vt 0.894267 0.795272
vt 0.894274 0.718644
vt 0.844746 0.730840
vt 0.813250 0.360936
vt 0.938087 0.283053
vt 0.912763 0.242463
vt 0.783132 0.312663
vt 0.736988 0.183205
vt 0.725788 0.149082
vt 0.658176 0.106394
vt 0.689203 0.199445
vt 0.789691 0.794868
vt 0.789691 0.718644
vt 0.275094 0.358962
vt 0.274973 0.440069
vt 0.731185 0.328195
vt 0.734295 0.206262
vt 0.766617 0.310784
vt 0.783041 0.311912
vt 0.499142 0.431616
vt 0.725537 0.390841
vt 0.896268 0.930299
vt 0.878096 0.915857
vt 0.838220 0.915853
vt 0.819642 0.930857
vt 0.896268 0.818694
vt 0.878096 0.833135
vt 0.838213 0.833137
vt 0.820037 0.818699
vt 0.602413 0.818276
vt 0.651078 0.752386
vt 0.638911 0.736942
vt 0.602734 0.667262
vt 0.726070 0.818276
vt 0.651763 0.752213
vt 0.667746 0.648894
vt 0.657770 0.733976
vt 0.595845 0.455976
vt 0.568745 0.523168
vt 0.811316 0.621005
vt 0.838417 0.553813
vt 0.725979 0.390392
vt 0.721429 0.365250
vt 0.726488 0.816361
vt 0.726856 0.816361
vt 0.726856 0.795287
vt 0.726488 0.795287
vt 0.705724 0.216803
vt 0.743670 0.320522
vt 0.743803 0.320790
vt 0.766677 0.311091
vt 0.805273 0.425904
vt 0.805573 0.425205
vt 0.765705 0.407674
vt 0.765405 0.408372
vt 0.731488 0.328366
vt 0.212735 0.780084
vt 0.222732 0.913239
vt 0.301335 0.975047
vt 0.373972 0.842036
vt 0.199762 0.901873
vt 0.216075 0.921712
vt 0.152445 0.789711
vt 0.182994 0.921619
vt 0.178030 0.759717
vt 0.015142 0.890932
vt 0.116473 0.999791
vt 0.162071 0.648894
vt 0.207453 0.673009
vt 0.000209 0.838361
vt 0.129183 0.687193
vt 0.373972 0.786410
vt 0.447693 0.506932
vt 0.447905 0.507748
vt 0.494717 0.495982
vt 0.494505 0.495167
vt 0.535310 0.528057
vt 0.586086 0.454466
vt 0.778636 0.629628
vt 0.780498 0.624680
vt 0.539021 0.525676
vt 0.800236 0.648476
vt 0.782395 0.620124
vt 0.388278 0.748440
vt 0.465162 0.648894
vt 0.587321 0.455298
vt 0.445473 0.376154
vt 0.275094 0.358962
vt 0.115788 0.450891
vt 0.112466 0.391769
vt 0.262081 0.304772
vt 0.097738 0.371870
vt 0.112466 0.391769
vt 0.115788 0.450891
vt 0.717798 0.278632
vt 0.440716 0.288623
vt 0.591343 0.048726
vt 0.620867 0.040954
vt 0.819224 0.818694
vt 0.800255 0.892520
vt 0.696628 0.871797
vt 0.694913 0.818694
vt 0.012970 0.447190
vt 0.574832 0.000209
vt 0.586039 0.000209
vt 0.000209 0.436288
vt 0.625234 0.848186
vt 0.615666 0.826185
vt 0.609586 0.849715
vt 0.602413 0.826715
vt 0.934572 0.801365
vt 0.894693 0.801365
vt 0.894693 0.718644
vt 0.934572 0.718644
vt 0.731837 0.328565
vt 0.743728 0.321086
vt 0.751442 0.329683
vt 0.746558 0.334560
vt 0.764474 0.327151
vt 0.751589 0.329574
vt 0.721926 0.365304
vt 0.741841 0.363001
vt 0.748047 0.370681
vt 0.772045 0.329168
vt 0.786435 0.415299
vt 0.771237 0.381464
vt 0.795602 0.378835
vt 0.755002 0.359515
vt 0.767790 0.361267
vt 0.754274 0.341367
vt 0.752714 0.355233
vt 0.756384 0.337943
vt 0.763943 0.336109
vt 0.756562 0.337810
vt 0.771714 0.356567
vt 0.766560 0.338546
vt 0.620867 0.040954
vt 0.819224 0.818694
vt 0.694913 0.818694
vt 0.696628 0.871797
vt 0.800255 0.892520
vt 0.012970 0.447190
vt 0.586039 0.000209
vt 0.615666 0.826185
vt 0.625234 0.848186
vt 0.934572 0.801365
vt 0.934572 0.718644
vt 0.894693 0.718644
vt 0.894693 0.801365
vt 0.731837 0.328565
vt 0.746558 0.334560
vt 0.751442 0.329683
vt 0.743728 0.321086
vt 0.751589 0.329574
vt 0.764474 0.327151
vt 0.748047 0.370681
vt 0.741841 0.363001
vt 0.721926 0.365304
vt 0.772045 0.329168
vt 0.786435 0.415299
vt 0.795602 0.378835
vt 0.771237 0.381464
vt 0.767790 0.361267
vt 0.755002 0.359515
vt 0.752714 0.355233
vt 0.754274 0.341367
vt 0.756384 0.337943
vt 0.756562 0.337810
vt 0.763943 0.336109
vt 0.766560 0.338546
vt 0.771714 0.356567
vt 0.790109 0.731829
vt 0.798843 0.718644
vt 0.835595 0.718644
vt 0.844328 0.731829
vt 0.844328 0.791880
vt 0.835595 0.804107
vt 0.798843 0.804107
vt 0.790109 0.791880
vt 0.790109 0.731829
vt 0.790109 0.791880
vt 0.798843 0.804107
vt 0.835595 0.804107
vt 0.844328 0.791880
vt 0.844328 0.731829
vt 0.835595 0.718644
vt 0.798843 0.718644
vt 0.475097 0.750888
vt 0.553437 0.654600
vt 0.601995 0.713697
vt 0.557140 0.749736
vt 0.464109 0.765543
vt 0.551624 0.761735
vt 0.549937 0.872763
vt 0.601995 0.821234
vt 0.465673 0.878204
vt 0.374391 0.766279
vt 0.475097 0.750888
vt 0.557140 0.749736
vt 0.601995 0.713697
vt 0.553437 0.654600
vt 0.464109 0.765543
vt 0.551624 0.761735
vt 0.549937 0.872763
vt 0.601995 0.821234
vt 0.465673 0.878204
vt 0.374391 0.766279
vn 0.0000 -0.0000 1.0000
vn 0.0000 -1.0000 0.0000
vn 0.0083 -0.0063 0.9999
vn -0.0021 -0.0064 1.0000
vn -0.0734 0.9965 0.0410
vn 1.0000 0.0000 0.0000
vn -0.0504 0.9987 -0.0000
vn -0.0446 -0.1943 0.9799
vn 0.0349 0.9994 -0.0000
vn 0.0128 0.6388 0.7693
vn -0.0000 -0.5812 -0.8138
vn -0.6397 -0.0059 0.7686
vn -0.6213 -0.0000 0.7836
vn -0.6239 -0.0190 0.7812
vn 0.0000 -0.0000 -1.0000
vn 0.0000 1.0000 0.0000
vn 0.0119 0.6329 -0.7741
vn -1.0000 0.0000 0.0000
vn 0.0595 -0.9844 0.1658
vn -0.0000 0.1146 0.9934
vn -0.1491 0.9876 -0.0488
vn 0.0358 0.9819 -0.1859
vn -0.2407 -0.8969 0.3710
vn -0.2240 -0.9068 0.3572
vn 0.0335 0.9811 -0.1906
vn -0.1401 0.9885 -0.0563
vn 0.0560 -0.9866 0.1532
vn 0.0000 -0.5812 0.8138
vn 0.2477 -0.9688 0.0002
vn 0.0083 -0.0063 -0.9999
vn -0.0021 -0.0064 -1.0000
vn -0.0734 0.9965 -0.0410
vn -0.0446 -0.1943 -0.9799
vn 0.0128 0.6388 -0.7693
vn -0.6397 -0.0059 -0.7686
vn -0.6213 -0.0000 -0.7836
vn -0.6239 -0.0190 -0.7812
vn 0.0119 0.6329 0.7741
vn 0.0595 -0.9844 -0.1658
vn -0.0000 0.1146 -0.9934
vn -0.1491 0.9876 0.0488
vn 0.0358 0.9819 0.1859
vn -0.2407 -0.8969 -0.3710
vn -0.2240 -0.9068 -0.3572
vn 0.0335 0.9811 0.1906
vn -0.1401 0.9885 0.0563
vn 0.0560 -0.9866 -0.1532
vn 0.2477 -0.9688 -0.0002
vn -0.2778 -0.3116 0.9087
vn -0.3613 -0.9322 0.0206
vn -0.2778 -0.3116 -0.9087
vn -0.3613 -0.9322 -0.0206
vn 0.1402 -0.9901 0.0000
vn 0.0544 0.9985 -0.0016
vn -0.1892 0.0000 0.9819
vn -0.4506 -0.2978 0.8416
vn -0.0798 0.9967 0.0112
vn -0.7394 -0.6376 0.2162
vn -0.3603 0.0758 0.9298
vn -0.7604 0.5765 0.2989
vn -0.4626 -0.8866 -0.0000
vn -0.3088 0.9511 -0.0027
vn -0.4597 0.4904 -0.7404
vn -0.4941 0.8694 -0.0000
vn -0.4677 -0.5137 -0.7193
vn -0.4511 0.5083 0.7336
vn -0.4677 -0.5137 0.7193
vn -0.3392 0.0000 -0.9407
vn -0.4941 -0.8694 -0.0000
vn 0.6969 0.7172 0.0000
vn 0.5247 0.0000 0.8513
vn 0.6627 -0.4136 0.6243
vn 0.6969 -0.7172 0.0000
vn 0.6709 0.4310 0.6034
vn 0.5247 0.0000 -0.8513
vn 0.6627 -0.4136 -0.6243
vn 0.6709 0.4310 -0.6034
vn -0.3261 -0.0048 0.9453
vn 0.0544 0.9985 0.0016
vn -0.1892 0.0000 -0.9819
vn -0.4506 -0.2978 -0.8416
vn -0.0798 0.9967 -0.0112
vn -0.7394 -0.6376 -0.2162
vn -0.3603 0.0758 -0.9298
vn -0.7604 0.5765 -0.2989
vn -0.3088 0.9511 0.0027
vn -0.4597 0.4904 0.7404
vn -0.4511 0.5083 -0.7336
vn -0.3392 0.0000 0.9407
vn -0.3261 -0.0048 -0.9453
vn 0.0536 -0.6751 -0.7358
vn -0.3728 -0.8223 -0.4299
vn 0.0102 0.6905 0.7232
vn 0.0076 0.7317 0.6816
vn -0.3039 -0.8145 -0.4942
vn 0.0416 -0.7064 -0.7066
vn 0.0536 -0.6751 0.7358
vn -0.3728 -0.8223 0.4299
vn 0.0102 0.6905 -0.7232
vn 0.0076 0.7317 -0.6816
vn -0.3039 -0.8145 0.4942
vn 0.0416 -0.7064 0.7066
usemtl Body
s off
f 11/1/1 16/2/1 8/3/1
f 7/4/2 11/5/2 69/6/2 2/7/2
f 10/8/3 60/9/3 6/10/3 2/11/3
f 71/12/4 38/13/4 60/14/4 69/15/4
f 13/16/5 12/17/5 3/18/5 6/19/5
f 97/20/6 37/21/6 39/22/6 95/23/6
f 12/17/7 103/24/7 98/25/7 3/18/7
f 11/1/8 7/26/8 15/27/8 16/2/8
f 4/28/9 97/29/9 103/24/9 12/17/9
f 13/16/10 5/30/10 33/31/10 35/32/10
f 11/1/11 8/3/11 29/33/11 31/34/11
f 2/35/12 6/36/12 22/37/12 20/38/12
f 7/39/13 2/35/13 20/38/13 23/40/13
f 6/36/14 3/41/14 21/42/14 22/37/14
f 3/41/13 7/39/13 23/40/13 21/42/13
f 22/43/2 21/44/2 25/45/2 26/46/2
f 20/47/15 22/43/15 26/46/15 24/48/15
f 23/49/16 20/47/16 24/48/16 27/50/16
f 21/44/1 23/49/1 27/50/1 25/45/1
f 31/51/2 41/52/2 84/53/2 70/54/2
f 29/33/1 8/3/1 39/55/1 41/56/1
f 40/57/1 36/58/1 71/59/1 84/60/1
f 33/31/16 32/61/16 34/62/16 35/32/16
f 32/61/1 33/31/1 43/63/1 42/64/1
f 4/28/17 12/17/17 34/62/17 32/61/17
f 1/65/1 28/66/1 40/67/1 36/68/1
f 4/28/1 32/61/1 42/64/1 37/69/1
f 33/31/18 5/30/18 38/13/18 43/63/18
f 8/3/1 4/28/1 37/69/1 39/55/1
f 28/66/1 29/33/1 41/56/1 40/67/1
f 66/70/19 65/71/19 63/72/19 64/73/19
f 61/74/20 64/73/20 63/72/20 62/75/20
f 68/76/21 67/77/21 61/74/21 62/78/21
f 65/79/22 68/76/22 62/78/22 63/80/22
f 67/77/23 66/70/23 64/73/23 61/74/23
f 6/81/24 60/82/24 66/70/24 67/77/24
f 38/83/25 13/84/25 68/76/25 65/79/25
f 13/84/26 6/81/26 67/77/26 68/76/26
f 60/82/27 38/85/27 65/71/27 66/70/27
f 10/86/1 30/87/1 70/88/1 69/89/1
f 69/89/28 70/88/28 73/90/28 72/91/28
f 74/92/28 72/91/28 76/93/28 75/94/28
f 71/95/28 69/89/28 72/91/28 74/92/28
f 84/53/28 71/95/28 74/92/28 75/96/28
f 70/54/28 84/53/28 75/97/28 77/98/28
f 72/91/1 73/90/1 77/99/1 76/93/1
f 86/100/29 85/101/29 182/102/29 184/103/29
f 16/2/1 15/27/1 85/101/1 86/100/1
f 100/104/15 94/105/15 107/106/15
f 93/107/2 88/108/2 165/109/2 100/110/2
f 99/111/30 88/112/30 92/113/30 156/114/30
f 167/115/31 165/116/31 156/117/31 134/118/31
f 102/119/32 92/120/32 89/121/32 101/122/32
f 97/20/6 95/23/6 135/123/6 133/124/6
f 101/122/7 89/121/7 98/25/7 103/24/7
f 100/104/33 107/106/33 105/125/33 93/126/33
f 90/127/9 101/122/9 103/24/9 97/29/9
f 102/119/34 131/128/34 129/129/34 91/130/34
f 100/104/28 127/131/28 125/132/28 94/105/28
f 88/133/35 116/134/35 118/135/35 92/136/35
f 93/137/36 119/138/36 116/134/36 88/133/36
f 92/136/37 118/135/37 117/139/37 89/140/37
f 89/140/36 117/139/36 119/138/36 93/137/36
f 118/141/2 122/142/2 121/143/2 117/144/2
f 116/145/1 120/146/1 122/142/1 118/141/1
f 119/147/16 123/148/16 120/146/16 116/145/16
f 117/144/15 121/143/15 123/148/15 119/147/15
f 127/149/2 166/150/2 180/151/2 137/152/2
f 125/132/1 137/153/1 135/154/1 94/105/1
f 136/155/1 180/156/1 167/157/1 132/158/1
f 129/129/16 131/128/16 130/159/16 128/160/16
f 128/160/1 138/161/1 139/162/1 129/129/1
f 90/127/38 128/160/38 130/159/38 101/122/38
f 87/163/1 132/164/1 136/165/1 124/166/1
f 90/127/1 133/167/1 138/161/1 128/160/1
f 129/129/18 139/162/18 134/118/18 91/130/18
f 94/105/1 135/154/1 133/167/1 90/127/1
f 124/166/1 136/165/1 137/153/1 125/132/1
f 162/168/39 160/169/39 159/170/39 161/171/39
f 157/172/40 158/173/40 159/170/40 160/169/40
f 164/174/41 158/175/41 157/172/41 163/176/41
f 161/177/42 159/178/42 158/175/42 164/174/42
f 163/176/43 157/172/43 160/169/43 162/168/43
f 92/179/44 163/176/44 162/168/44 156/180/44
f 134/181/45 161/177/45 164/174/45 102/182/45
f 102/182/46 164/174/46 163/176/46 92/179/46
f 156/180/47 162/168/47 161/171/47 134/183/47
f 99/184/1 165/185/1 166/186/1 126/187/1
f 165/185/11 168/188/11 169/189/11 166/186/11
f 170/190/11 171/191/11 172/192/11 168/188/11
f 167/193/11 170/190/11 168/188/11 165/185/11
f 180/151/11 171/194/11 170/190/11 167/193/11
f 166/150/11 173/195/11 171/196/11 180/151/11
f 168/188/1 172/192/1 173/197/1 169/189/1
f 183/198/48 184/103/48 182/102/48 181/199/48
f 107/106/1 183/198/1 181/199/1 105/125/1
usemtl Window
f 15/27/49 7/26/49 14/200/49 17/201/49
f 15/27/1 106/202/1 182/102/1 85/101/1
f 106/202/50 15/27/50 17/201/50 111/203/50
f 105/125/51 110/204/51 104/205/51 93/126/51
f 105/125/1 181/199/1 182/102/1 106/202/1
f 106/202/52 111/203/52 110/204/52 105/125/52
usemtl Metal
f 95/206/53 8/3/53 16/2/53 108/207/53
f 3/18/54 98/25/54 109/208/54 9/209/54
f 7/210/55 3/211/55 9/212/55 14/213/55
f 17/201/56 14/200/56 19/214/56
f 9/209/57 109/208/57 114/215/57 18/216/57
f 111/203/58 17/201/58 19/214/58 115/217/58
f 14/213/59 9/212/59 18/218/59 19/219/59
f 114/220/60 115/221/60 19/219/60 18/218/60
f 24/222/13 26/223/13 25/224/13 27/225/13
f 10/86/61 11/1/61 31/34/61 30/87/61
f 12/17/62 13/16/62 35/32/62 34/62/62
f 37/226/63 42/227/63 50/228/63 45/229/63
f 42/64/64 43/63/64 51/230/64 50/231/64
f 41/56/65 39/232/65 47/233/65 49/234/65
f 43/63/66 38/13/66 46/235/66 51/230/66
f 36/236/67 40/67/67 48/237/67 44/238/67
f 39/232/68 37/226/68 45/229/68 47/233/68
f 40/67/69 41/56/69 49/234/69 48/237/69
f 48/237/70 49/234/70 57/239/70 56/240/70
f 47/233/71 45/229/71 53/241/71 55/242/71
f 45/229/72 50/228/72 58/243/72 53/241/72
f 50/231/73 51/230/73 59/244/73 58/245/73
f 49/234/74 47/233/74 55/242/74 57/239/74
f 46/235/75 44/238/75 52/246/75 54/247/75
f 51/230/76 46/235/76 54/247/76 59/244/76
f 44/238/77 48/237/77 56/240/77 52/246/77
f 38/13/78 71/12/78 44/238/78 46/235/78
f 108/207/1 16/2/1 86/100/1 184/103/1
f 95/206/53 108/207/53 107/106/53 94/105/53
f 89/121/79 96/248/79 109/208/79 98/25/79
f 93/249/80 104/250/80 96/251/80 89/252/80
f 110/204/81 113/253/81 104/205/81
f 96/248/82 112/254/82 114/215/82 109/208/82
f 111/203/83 115/217/83 113/253/83 110/204/83
f 104/250/84 113/255/84 112/256/84 96/251/84
f 114/220/85 112/256/85 113/255/85 115/221/85
f 120/257/36 123/258/36 121/259/36 122/260/36
f 99/184/61 126/187/61 127/131/61 100/104/61
f 101/122/86 130/159/86 131/128/86 102/119/86
f 133/261/87 141/262/87 146/263/87 138/264/87
f 138/161/64 146/265/64 147/266/64 139/162/64
f 137/153/67 145/267/67 143/268/67 135/269/67
f 139/162/88 147/266/88 142/270/88 134/118/88
f 132/271/65 140/272/65 144/273/65 136/165/65
f 135/269/89 143/268/89 141/262/89 133/261/89
f 136/165/69 144/273/69 145/267/69 137/153/69
f 144/273/70 152/274/70 153/275/70 145/267/70
f 143/268/75 151/276/75 149/277/75 141/262/75
f 141/262/76 149/277/76 154/278/76 146/263/76
f 146/265/73 154/279/73 155/280/73 147/266/73
f 145/267/77 153/275/77 151/276/77 143/268/77
f 142/270/71 150/281/71 148/282/71 140/272/71
f 147/266/72 155/280/72 150/281/72 142/270/72
f 140/272/74 148/282/74 152/274/74 144/273/74
f 134/118/90 142/270/90 140/272/90 167/115/90
f 108/207/1 184/103/1 183/198/1 107/106/1
usemtl Thruster
f 53/283/6 58/284/6 59/285/6 54/286/6 52/287/6 56/288/6 57/289/6 55/290/6
f 149/291/6 151/292/6 153/293/6 152/294/6 148/295/6 150/296/6 155/297/6 154/298/6
usemtl Stabalizers
f 82/299/91 81/300/91 80/301/91 79/302/91
f 83/303/92 82/299/92 79/302/92 78/304/92
f 81/305/93 83/303/93 78/304/93 80/306/93
f 80/301/28 78/304/28 79/302/28
f 75/307/94 76/308/94 83/303/94 81/305/94
f 76/308/95 77/98/95 82/299/95 83/303/95
f 77/98/96 75/97/96 81/300/96 82/299/96
f 178/309/97 175/310/97 176/311/97 177/312/97
f 179/313/98 174/314/98 175/310/98 178/309/98
f 177/315/99 176/316/99 174/314/99 179/313/99
f 176/311/11 175/310/11 174/314/11
f 171/317/100 177/315/100 179/313/100 172/318/100
f 172/318/101 179/313/101 178/309/101 173/195/101
f 173/195/102 178/309/102 177/312/102 171/196/102
